<?xml version="1.0" standalone="no"?>
<!DOCTYPE svg PUBLIC "-//W3C//DTD SVG 20010904//EN"
 "http://www.w3.org/TR/2001/REC-SVG-20010904/DTD/svg10.dtd">
<svg version="1.0" xmlns="http://www.w3.org/2000/svg"
 width="512.000000pt" height="512.000000pt" viewBox="0 0 512.000000 512.000000"
 preserveAspectRatio="xMidYMid meet">
<metadata>
Created by potrace 1.14, written by Peter Selinger 2001-2017
</metadata>
<g transform="translate(0.000000,512.000000) scale(0.100000,-0.100000)"
fill="#000000" stroke="none">
<path d="M2379 5116 c-2 -2 -35 -6 -74 -10 -112 -10 -242 -32 -360 -61 -109
-27 -345 -105 -398 -132 -15 -7 -33 -11 -39 -7 -6 4 -8 3 -5 -3 4 -6 -11 -18
-36 -28 -85 -34 -424 -238 -457 -275 -3 -3 -18 -16 -35 -29 -142 -108 -286
-256 -474 -486 -26 -32 -134 -203 -179 -283 -168 -297 -269 -622 -310 -987 -9
-81 -9 -412 0 -505 9 -90 42 -284 62 -358 8 -29 14 -53 14 -55 0 -1 9 -36 21
-77 47 -162 163 -425 246 -560 19 -30 34 -60 35 -67 0 -6 4 -13 8 -15 12 -4
72 -95 72 -107 0 -6 4 -11 8 -11 14 0 84 -99 77 -110 -3 -5 0 -8 7 -5 7 2 25
-12 40 -31 53 -70 185 -202 319 -319 65 -58 200 -155 294 -212 51 -32 91 -62
88 -67 -4 -5 -1 -6 5 -2 6 3 59 -18 119 -48 243 -121 537 -211 788 -242 28 -3
77 -9 110 -14 60 -8 465 -5 518 4 15 2 74 12 130 21 191 31 451 106 597 171
73 33 238 119 310 162 69 41 228 149 240 162 3 3 28 23 55 45 90 71 246 224
347 340 188 217 386 574 474 857 9 31 20 55 23 54 3 -2 7 10 8 27 0 18 13 79
27 137 14 58 29 130 32 160 3 30 7 57 9 60 10 16 19 189 20 345 0 219 -10 337
-45 505 -6 30 -13 66 -16 78 -14 70 -64 235 -98 327 -78 206 -210 446 -340
619 -78 104 -89 117 -221 261 -43 48 -204 190 -272 242 -40 31 -73 59 -73 64
0 5 -3 8 -8 7 -10 -4 -112 62 -112 71 0 4 -6 8 -12 8 -7 0 -47 20 -90 46 -170
101 -444 214 -608 252 -8 2 -46 11 -85 20 -83 20 -87 20 -190 35 -44 6 -91 14
-105 16 -28 6 -456 15 -461 10z m451 -331 c45 -7 170 -29 225 -40 94 -18 260
-73 395 -130 80 -33 224 -107 228 -117 2 -5 8 -8 14 -8 15 0 184 -116 266
-182 41 -34 69 -64 66 -70 -5 -7 -2 -8 6 -3 9 5 48 -29 126 -108 121 -124 219
-248 309 -392 54 -87 154 -280 159 -307 1 -7 7 -22 13 -33 13 -23 79 -218 87
-255 3 -14 10 -45 17 -70 6 -25 13 -56 15 -70 3 -14 9 -50 15 -80 24 -133 32
-427 17 -590 -30 -314 -145 -654 -318 -940 -102 -168 -323 -423 -478 -551
-337 -279 -775 -464 -1194 -506 -138 -14 -470 -8 -563 11 -11 2 -40 7 -65 11
-25 4 -89 18 -144 31 -448 112 -841 350 -1144 695 -92 105 -104 119 -187 244
-115 173 -196 337 -260 530 -42 127 -79 281 -72 306 3 10 2 17 -3 14 -8 -5
-16 38 -28 143 -8 81 -8 383 0 472 10 98 18 151 22 159 3 4 7 27 11 51 21 150
121 429 219 613 174 325 448 623 766 832 152 99 470 245 506 231 8 -3 13 -2
10 3 -8 13 167 64 263 77 18 2 36 6 40 9 9 5 77 14 176 25 82 8 420 5 485 -5z"/>
<path d="M2688 4485 c-3 -3 -84 -7 -179 -9 -96 -2 -181 -6 -189 -9 -8 -3 -33
-8 -55 -11 -63 -8 -141 -24 -200 -41 -30 -9 -59 -14 -65 -10 -5 3 -10 2 -10
-2 0 -5 -24 -16 -52 -26 -259 -90 -511 -245 -707 -436 -174 -170 -258 -283
-393 -531 -23 -41 -116 -275 -123 -310 -32 -138 -46 -206 -51 -237 -3 -21 -8
-49 -10 -63 -10 -48 -12 -356 -3 -440 8 -70 28 -188 44 -260 12 -51 58 -196
75 -236 12 -26 19 -53 16 -61 -3 -7 -1 -12 3 -10 5 1 32 -43 60 -98 136 -270
336 -506 576 -680 50 -36 95 -68 100 -73 23 -16 94 -55 173 -94 45 -22 82 -45
82 -51 0 -6 3 -8 6 -4 6 5 66 -12 109 -32 107 -50 349 -102 529 -115 58 -5
196 -9 206 -6 3 0 34 3 70 5 284 20 609 123 844 268 265 163 484 379 649 640
21 31 37 60 37 63 0 3 8 18 18 32 59 86 151 337 186 503 37 182 37 179 41 369
3 168 -10 321 -35 430 -6 25 -12 54 -14 66 -7 36 -45 156 -77 239 -28 74 -153
324 -168 335 -3 3 -19 25 -35 50 -132 203 -368 426 -601 566 -47 28 -81 55
-77 59 4 5 2 5 -4 2 -7 -4 -54 13 -105 37 -167 79 -393 144 -564 162 -38 4
-78 7 -88 6 -9 0 -15 3 -12 9 7 10 2 12 -7 4z m11 -763 c0 -79 1 -145 3 -147
2 -1 35 -6 73 -9 63 -6 88 -10 175 -30 50 -11 147 -49 169 -65 l21 -16 -34
-110 c-19 -61 -37 -125 -41 -142 l-7 -33 -36 16 c-165 72 -258 93 -407 91
-100 -2 -115 -5 -170 -32 -41 -21 -71 -45 -95 -77 -32 -43 -35 -52 -32 -104 4
-88 25 -121 118 -194 18 -13 151 -83 164 -85 3 0 55 -20 115 -44 182 -73 275
-129 364 -220 159 -164 185 -439 62 -654 -38 -67 -138 -162 -212 -201 -57 -31
-189 -76 -220 -76 -23 0 -22 7 -25 -160 -1 -74 -2 -144 -3 -155 -1 -19 -8 -20
-131 -21 l-130 -1 -1 26 c0 14 -1 84 -2 156 l-2 129 -40 3 c-170 13 -389 73
-457 126 -16 13 -15 22 20 146 21 72 41 129 44 125 4 -3 4 3 1 15 -7 27 -4 27
80 -13 111 -53 262 -96 338 -96 16 0 29 -5 29 -12 0 -8 3 -9 8 -3 4 6 34 11
67 12 188 8 301 85 318 218 18 132 -75 244 -263 319 -25 10 -56 23 -70 29 -14
5 -30 11 -36 12 -39 9 -213 94 -275 135 -136 88 -224 208 -248 333 -23 127 6
279 76 384 77 117 215 207 373 246 l55 13 1 41 c1 22 4 45 8 52 4 6 4 11 -1
11 -6 0 -9 138 -4 196 1 8 43 11 131 10 l130 0 -1 -144z"/>
</g>
</svg>
